# xmcd
#
# Track frame offsets:
#	150
#	11322
#	22295
#	38887
#	52465
#	62425
#	74672
#	86287
#	96600
#	111602
#	123250
#	135730
#
# Disc length: 1997 seconds
#
# Revision: 0
# Processed by: cddbd v1.4PL0 Copyright (c) Steve Scherf et al.
# Submitted via: audiograbber 1.82.02
#
DISCID=b307cb0c
DTITLE=Los Canelos De Durango - Corridones
DYEAR=1996
DGENRE=Latin
TTITLE0=Quemando La Chiva
TTITLE1=Los Gomeros
TTITLE2=Los Empacadores
TTITLE3=Se Rifan La Temporada
TTITLE4=Andan Tomando los Plebes
TTITLE5=Unos Amigos
TTITLE6=El Corrido De Armando
TTITLE7=Capos De Almoloya
TTITLE8=El Bajador
TTITLE9=Honrada
TTITLE10=Por Amor
TTITLE11=Los Zares Del Contrabando
EXTD=By ..::[ Carlos_Mp3s ]::..
EXTT0=
EXTT1=
EXTT2=
EXTT3=
EXTT4=
EXTT5=
EXTT6=
EXTT7=
EXTT8=
EXTT9=
EXTT10=
EXTT11=
PLAYORDER=
